<svg width="360" height="208" viewBox="0 0 360 208" fill="none" xmlns="http://www.w3.org/2000/svg">
<path d="M109.453 108.445C110.141 109.992 111.227 111.414 112.711 112.711C114.211 113.992 115.82 115.023 117.539 115.805C119.273 116.586 120.773 116.977 122.039 116.977H112.781H106.711C106.633 116.977 106.539 116.977 106.43 116.977C106.336 116.977 106.242 116.977 106.148 116.977C106.07 116.977 106.008 116.977 105.961 116.977H94.125C95.4219 116.977 96.8047 116.727 98.2734 116.227C99.7578 115.727 101.031 114.945 102.094 113.883C103.156 112.82 103.766 111.453 103.922 109.781L99.0469 97.3125C93.7656 97.3125 88.4766 97.3125 83.1797 97.3125C82.0547 97.3125 80.9219 97.3125 79.7812 97.3125C78.6562 97.3125 77.5234 97.3125 76.3828 97.3125C75.2422 97.3125 74.1094 97.3125 72.9844 97.3125C71.5625 101.453 70.1484 105.586 68.7422 109.711C68.8672 111.398 69.4609 112.781 70.5234 113.859C71.5859 114.922 72.8594 115.711 74.3438 116.227C75.8438 116.727 77.2422 116.977 78.5391 116.977H66.6797C66.6484 116.977 66.5859 116.977 66.4922 116.977C66.4297 116.977 66.3516 116.977 66.2578 116.977H65.2969C65.2188 116.977 65.1484 116.977 65.0859 116.977C64.9922 116.977 64.9297 116.977 64.8984 116.977H55.5703C56.8672 116.977 58.3594 116.688 60.0469 116.109C61.7344 115.531 63.2891 114.695 64.7109 113.602C66.1328 112.492 67.1562 111.156 67.7812 109.594C67.875 109.328 67.9688 109.055 68.0625 108.773C69.8594 103.523 71.6562 98.2656 73.4531 93C74.4531 90.1094 75.4453 87.2188 76.4297 84.3281C77.3672 81.5781 78.3047 78.8281 79.2422 76.0781C79.8984 74.1562 80.5547 72.2266 81.2109 70.2891C81.8516 68.4297 82.4922 66.5625 83.1328 64.6875C83.2422 64.3594 83.3594 64.0234 83.4844 63.6797C83.5625 63.4453 83.6406 63.2031 83.7188 62.9531C83.7344 62.9219 83.75 62.8906 83.7656 62.8594C83.7656 62.8438 83.7656 62.8281 83.7656 62.8125C83.7656 62.7969 83.7656 62.7812 83.7656 62.7656C83.7656 62.7188 83.7578 62.6641 83.7422 62.6016C83.7422 62.5234 83.7344 62.4453 83.7188 62.3672C83.6719 62.0391 83.6094 61.7188 83.5312 61.4062C83.0625 59.5938 82.1562 58.1172 80.8125 56.9766C79.4844 55.8359 77.9453 55.2656 76.1953 55.2656H84.8438C84.8594 55.2656 84.875 55.2656 84.8906 55.2656H88.6641L109.312 108.117C109.312 108.117 109.312 108.125 109.312 108.141C109.328 108.141 109.336 108.141 109.336 108.141L109.453 108.445ZM93.3281 96.375C95.1094 96.375 96.8906 96.375 98.6719 96.375L85.1484 61.7578C85.0391 62.0859 84.9219 62.4062 84.7969 62.7188C84.7188 62.9688 84.6328 63.2109 84.5391 63.4453C84.4453 63.7422 84.3438 64.0469 84.2344 64.3594C84.0781 64.8281 83.9219 65.2969 83.7656 65.7656C83.0469 67.8281 82.3359 69.8906 81.6328 71.9531C80.9297 74.0156 80.2266 76.0781 79.5234 78.1406C78.5547 80.9844 77.5859 83.8203 76.6172 86.6484C75.6328 89.5234 74.6484 92.3984 73.6641 95.2734C73.6172 95.4297 73.5625 95.5938 73.5 95.7656C73.4375 95.9688 73.3672 96.1719 73.2891 96.375C74.3672 96.375 75.4453 96.375 76.5234 96.375C82.1172 96.375 87.7188 96.375 93.3281 96.375ZM135.984 109.617C136.25 111.727 137.086 113.477 138.492 114.867C139.914 116.258 141.602 116.953 143.555 116.953H135.938H134.883H131.414H130.312H122.742C124.695 116.953 126.375 116.266 127.781 114.891C129.188 113.5 130.031 111.75 130.312 109.641V68.9531V63.9141V60.9844C129.281 61.1719 128.312 61.0859 127.406 60.7266C127.344 60.6953 127.289 60.6719 127.242 60.6562C127.008 60.5156 126.891 60.3125 126.891 60.0469C126.891 59.8438 126.953 59.6797 127.078 59.5547C127.219 59.4141 127.391 59.3438 127.594 59.3438C127.672 59.3438 127.75 59.3516 127.828 59.3672C127.859 59.3828 127.891 59.3984 127.922 59.4141C128.594 59.7109 129.312 59.8594 130.078 59.8594C130.891 59.8594 131.641 59.6953 132.328 59.3672C133.062 59.0391 133.688 58.5781 134.203 57.9844C134.203 57.9844 134.203 57.9766 134.203 57.9609C134.203 57.9609 134.211 57.9609 134.227 57.9609C134.93 57.1328 135.5 56.2188 135.938 55.2188V68.9531V109.266L135.961 109.289C135.961 109.398 135.969 109.508 135.984 109.617ZM221.836 109.664C222.102 111.789 222.938 113.547 224.344 114.938C225.75 116.328 227.43 117.023 229.383 117.023H220.734C220.734 117.023 220.734 117.016 220.734 117H217.242C217.242 117.016 217.242 117.023 217.242 117.023H208.594C210.531 117.023 212.203 116.328 213.609 114.938C215.031 113.547 215.875 111.789 216.141 109.664C216.156 109.57 216.164 109.477 216.164 109.383V86.2734C216.133 85.1953 215.867 84.2188 215.367 83.3438C215.367 83.3438 215.359 83.3438 215.344 83.3438C215.344 83.3281 215.344 83.3203 215.344 83.3203C215.312 83.2578 215.273 83.1875 215.227 83.1094C215.18 83.0156 215.125 82.9297 215.062 82.8516C215.016 82.7891 214.961 82.7266 214.898 82.6641C214.758 82.4922 214.617 82.3359 214.477 82.1953C214.445 82.1641 214.414 82.1328 214.383 82.1016C214.336 82.0547 214.289 82.0078 214.242 81.9609C214.227 81.9453 214.211 81.9297 214.195 81.9141C213.711 81.4766 213.195 81.1016 212.648 80.7891C212.617 80.7734 212.586 80.7578 212.555 80.7422C212.555 80.7422 212.547 80.7422 212.531 80.7422C212.109 80.5078 211.68 80.3203 211.242 80.1797C210.742 80.0078 210.242 79.8984 209.742 79.8516C209.633 79.8359 209.516 79.8203 209.391 79.8047C208.641 79.7734 207.906 79.8281 207.188 79.9688C206.109 80.2031 205.07 80.6172 204.07 81.2109C203.242 81.6797 202.461 82.25 201.727 82.9219C201.414 83.2031 201.109 83.5 200.812 83.8125C200.422 84.2656 200.047 84.7188 199.688 85.1719V85.1953L198.234 87.0234L198.094 87.2109L196.781 88.8516L196.5 89.2031L195.352 90.6562L195.07 91.0078L194.578 91.6406C193.766 92.5781 192.938 93.5156 192.094 94.4531C190.594 96.125 189.047 97.7656 187.453 99.375C186.953 99.875 186.453 100.367 185.953 100.852L194.906 92.625L196.781 90.8906L197.742 89.9766V109.312L197.766 109.336C197.766 109.445 197.773 109.562 197.789 109.688C198.055 111.797 198.891 113.547 200.297 114.938C201.719 116.328 203.406 117.023 205.359 117.023H196.688C196.688 117.023 196.68 117.016 196.664 117H193.242C193.227 117.016 193.211 117.023 193.195 117.023H184.547C186.484 117.023 188.156 116.336 189.562 114.961C190.984 113.57 191.828 111.82 192.094 109.711V100.266C192.094 99.5 191.906 99.0156 191.531 98.8125C191.156 98.6094 190.672 98.5938 190.078 98.7656C189.5 98.9219 188.883 99.1875 188.227 99.5625C187.57 99.9219 186.961 100.305 186.398 100.711C185.852 101.102 185.414 101.43 185.086 101.695C182.648 104.023 180.094 106.227 177.422 108.305C176.641 108.898 175.852 109.477 175.055 110.039C173.352 111.258 171.578 112.367 169.734 113.367C169.609 113.43 169.484 113.5 169.359 113.578C169.328 113.594 169.289 113.609 169.242 113.625C169.133 113.688 169.031 113.742 168.938 113.789C168.891 113.82 168.844 113.844 168.797 113.859C168.766 113.875 168.742 113.891 168.727 113.906C168.711 113.906 168.703 113.906 168.703 113.906C168.625 113.953 168.547 113.992 168.469 114.023C168.344 114.086 168.227 114.148 168.117 114.211C168.086 114.227 168.055 114.242 168.023 114.258C168.008 114.258 168 114.258 168 114.258C167.859 114.32 167.719 114.383 167.578 114.445C167.531 114.477 167.484 114.5 167.438 114.516C167.156 114.641 166.875 114.766 166.594 114.891C166.438 114.953 166.281 115.016 166.125 115.078C164.859 115.609 163.555 116.039 162.211 116.367C162.117 116.383 162.023 116.406 161.93 116.438C161.805 116.469 161.688 116.5 161.578 116.531C161.5 116.547 161.414 116.57 161.32 116.602C161.227 116.617 161.133 116.633 161.039 116.648C160.992 116.664 160.953 116.672 160.922 116.672C160.859 116.688 160.797 116.703 160.734 116.719C160.656 116.734 160.57 116.75 160.477 116.766C158.992 117 157.523 117 156.07 116.766C155.836 116.734 155.602 116.703 155.367 116.672C155.258 116.656 155.156 116.633 155.062 116.602C154.984 116.586 154.922 116.562 154.875 116.531C151.281 115.641 148.453 113.617 146.391 110.461C144.969 108.07 144.344 105.531 144.516 102.844C144.688 100.141 145.617 97.6875 147.305 95.4844C148.961 93.4375 151 91.9844 153.422 91.125C155.844 90.25 158.352 90.0547 160.945 90.5391C164.492 91.3203 167.297 93.1328 169.359 95.9766V83.9766C169.156 81.8984 168.445 80.1719 167.227 78.7969C166.023 77.4219 164.586 76.7344 162.914 76.7344C161.398 76.7344 160.07 77.2969 158.93 78.4219C157.789 79.5312 157.023 80.9688 156.633 82.7344C156.602 82.8594 156.578 83 156.562 83.1562C156.562 83.1719 156.555 83.1953 156.539 83.2266C156.539 83.2578 156.539 83.2891 156.539 83.3203C156.523 83.4766 156.508 83.6328 156.492 83.7891C156.492 83.8516 156.484 83.9141 156.469 83.9766C156.469 83.9766 156.469 83.9844 156.469 84C156.469 84.0312 156.469 84.0547 156.469 84.0703C156.469 84.0859 156.469 84.0938 156.469 84.0938L156.445 84.3984C156.445 84.4609 156.43 84.5312 156.398 84.6094C156.273 85 156.062 85.3203 155.766 85.5703C155.391 85.8984 154.953 86.0625 154.453 86.0625C153.656 86.0625 153.047 85.6875 152.625 84.9375C152.594 84.8594 152.562 84.7891 152.531 84.7266C152.5 84.6172 152.477 84.5078 152.461 84.3984C152.445 84.3516 152.438 84.3125 152.438 84.2812C152.422 84.2031 152.414 84.1172 152.414 84.0234C152.414 84.0078 152.414 83.9844 152.414 83.9531C152.414 83.6875 152.492 83.3828 152.648 83.0391C152.805 82.6797 152.992 82.3281 153.211 81.9844C153.43 81.6406 153.625 81.3516 153.797 81.1172C153.969 80.8672 154.062 80.7266 154.078 80.6953C154.594 79.9922 155.164 79.3438 155.789 78.75C156.867 77.7656 158.094 77.0078 159.469 76.4766C159.547 76.4453 159.633 76.4141 159.727 76.3828C159.883 76.3359 160.039 76.2891 160.195 76.2422C160.477 76.1484 160.766 76.0703 161.062 76.0078C161.094 76.0078 161.133 76 161.18 75.9844C161.648 75.8906 162.117 75.8281 162.586 75.7969C163.555 75.7344 164.508 75.7969 165.445 75.9844C168.273 76.5938 170.602 78.0547 172.43 80.3672C172.758 80.7891 173.055 81.2344 173.32 81.7031C174.055 83 174.539 84.3672 174.773 85.8047C174.945 86.7109 175.008 87.625 174.961 88.5469C174.992 88.8594 175.008 89.1797 175.008 89.5078V108.938C176.164 108.109 177.289 107.242 178.383 106.336C181.773 103.57 184.977 100.617 187.992 97.4766C189.398 96.0234 190.766 94.5469 192.094 93.0469V82.5234C191.078 82.6953 190.109 82.6016 189.188 82.2422C189.141 82.2266 189.094 82.2031 189.047 82.1719C188.797 82.0312 188.672 81.8281 188.672 81.5625C188.672 81.3594 188.742 81.1953 188.883 81.0703C189.023 80.9297 189.188 80.8594 189.375 80.8594C189.469 80.8594 189.547 80.8672 189.609 80.8828C189.656 80.8984 189.695 80.9219 189.727 80.9531C190.398 81.2344 191.117 81.375 191.883 81.375C192.68 81.375 193.43 81.2188 194.133 80.9062C194.727 80.625 195.258 80.2578 195.727 79.8047C195.82 79.6953 195.914 79.5859 196.008 79.4766C196.008 79.4922 196.008 79.5 196.008 79.5C196.008 79.4844 196.008 79.4766 196.008 79.4766C196.711 78.6641 197.289 77.75 197.742 76.7344V86.2969C198.273 85.5156 198.844 84.75 199.453 84C199.547 83.8906 199.641 83.7812 199.734 83.6719C201.172 81.9531 202.828 80.5 204.703 79.3125C206.594 78.125 208.672 77.3828 210.938 77.0859C212.453 76.9141 213.945 77.0391 215.414 77.4609C215.82 77.5703 216.211 77.7031 216.586 77.8594C216.742 77.9219 216.891 77.9844 217.031 78.0469H217.078C217.719 78.3125 218.32 78.6328 218.883 79.0078C219.336 79.2578 219.75 79.5781 220.125 79.9688C220.125 79.9688 220.125 79.9766 220.125 79.9922C220.141 79.9922 220.148 79.9922 220.148 79.9922C220.414 80.2891 220.656 80.6172 220.875 80.9766C221.062 81.2734 221.219 81.5859 221.344 81.9141C221.422 82.0859 221.484 82.2578 221.531 82.4297C221.625 82.7422 221.703 83.0703 221.766 83.4141C221.781 83.5703 221.797 83.7266 221.812 83.8828V87.7969V109.5C221.812 109.516 221.812 109.531 221.812 109.547C221.812 109.594 221.82 109.633 221.836 109.664ZM158.531 91.2188C156.812 92.0312 155.406 93.5625 154.312 95.8125C153.234 98.0625 152.695 100.664 152.695 103.617C152.695 106.523 153.227 109.094 154.289 111.328C155.352 113.562 156.719 115.102 158.391 115.945C159.281 115.914 160.164 115.82 161.039 115.664C161.305 115.617 161.57 115.562 161.836 115.5C163.711 115.047 165.516 114.406 167.25 113.578C167.297 113.562 167.344 113.539 167.391 113.508C167.406 113.508 167.422 113.5 167.438 113.484C168.094 113.172 168.734 112.844 169.359 112.5C169.406 112.484 169.445 112.469 169.477 112.453C169.398 112.094 169.359 111.734 169.359 111.375V97.6641C168.25 95.7422 166.734 94.2109 164.812 93.0703C162.906 91.9141 160.812 91.2969 158.531 91.2188ZM175.242 111C175.727 112.766 176.633 114.211 177.961 115.336C179.289 116.461 180.82 117.023 182.555 117.023H175.008C174.477 117.023 173.969 116.953 173.484 116.812C172.531 116.531 171.711 116.047 171.023 115.359C170.664 115 170.359 114.602 170.109 114.164C171.891 113.211 173.602 112.156 175.242 111ZM260.883 109.664C261.148 111.773 261.984 113.516 263.391 114.891C264.812 116.266 266.492 116.953 268.43 116.953H260.883C260.352 116.953 259.844 116.883 259.359 116.742C258.406 116.477 257.578 115.992 256.875 115.289C255.781 114.195 255.234 112.867 255.234 111.305V111.211C253.016 114.195 250.055 116.023 246.352 116.695C243.555 117.117 240.891 116.773 238.359 115.664C235.828 114.555 233.797 112.797 232.266 110.391C230.844 108 230.211 105.461 230.367 102.773C230.539 100.07 231.469 97.6172 233.156 95.4141C234.812 93.3672 236.852 91.9141 239.273 91.0547C241.711 90.1953 244.219 90.0078 246.797 90.4922C250.359 91.2734 253.172 93.0859 255.234 95.9297V85.7578V85.6641V85.2422V84.3281V83.9297C255.016 81.8359 254.305 80.1016 253.102 78.7266C251.898 77.3516 250.453 76.6641 248.766 76.6641C247.266 76.6641 245.945 77.2266 244.805 78.3516C243.664 79.4609 242.891 80.8984 242.484 82.6641C242.422 83.0234 242.375 83.4453 242.344 83.9297C242.344 83.9609 242.344 83.9922 242.344 84.0234L242.32 84.3281C242.305 84.4062 242.289 84.4766 242.273 84.5391C242.273 84.5547 242.273 84.5625 242.273 84.5625C242.148 84.9375 241.938 85.2578 241.641 85.5234C241.266 85.8359 240.828 85.9922 240.328 85.9922C239.531 85.9922 238.922 85.6172 238.5 84.8672C238.359 84.6016 238.289 84.3047 238.289 83.9766C238.289 83.9453 238.289 83.9141 238.289 83.8828C238.289 83.6172 238.367 83.3125 238.523 82.9688C238.68 82.6094 238.867 82.2578 239.086 81.9141C239.305 81.5703 239.492 81.2812 239.648 81.0469C239.82 80.8125 239.922 80.6797 239.953 80.6484C240.453 79.9297 241.023 79.2812 241.664 78.7031C243.148 77.3281 244.898 76.4141 246.914 75.9609C246.961 75.9453 247 75.9375 247.031 75.9375C247.516 75.8438 247.992 75.7812 248.461 75.75C249.43 75.6875 250.383 75.75 251.32 75.9375C254.148 76.5312 256.477 77.9922 258.305 80.3203C258.617 80.7422 258.906 81.1875 259.172 81.6562C259.906 82.9375 260.398 84.3047 260.648 85.7578C260.805 86.6641 260.867 87.5703 260.836 88.4766C260.867 88.8047 260.883 89.125 260.883 89.4375V109.664ZM248.039 115.336C251.227 114.242 253.625 112.281 255.234 109.453V98.5547V97.9922V97.6172C254.109 95.6797 252.594 94.1406 250.688 93C248.781 91.8438 246.688 91.2266 244.406 91.1484C242.688 91.9609 241.281 93.4922 240.188 95.7422C239.109 97.9922 238.57 100.594 238.57 103.547C238.57 106.5 239.109 109.102 240.188 111.352C241.266 113.602 242.664 115.133 244.383 115.945C245.617 115.914 246.836 115.711 248.039 115.336ZM182.531 159.664C182.797 161.789 183.633 163.547 185.039 164.938C186.445 166.328 188.125 167.023 190.078 167.023H181.43C181.43 167.023 181.43 167.016 181.43 167H177.938C177.938 167.016 177.938 167.023 177.938 167.023H169.289C171.227 167.023 172.898 166.328 174.305 164.938C175.727 163.547 176.57 161.789 176.836 159.664C176.852 159.57 176.859 159.477 176.859 159.383V136.273C176.828 135.195 176.562 134.219 176.062 133.344C176.062 133.344 176.055 133.344 176.039 133.344C176.039 133.328 176.039 133.32 176.039 133.32C176.008 133.258 175.969 133.188 175.922 133.109C175.875 133.016 175.82 132.93 175.758 132.852C175.711 132.789 175.656 132.727 175.594 132.664C175.453 132.492 175.312 132.336 175.172 132.195C175.141 132.164 175.109 132.133 175.078 132.102C175.031 132.055 174.984 132.008 174.938 131.961C174.922 131.945 174.906 131.93 174.891 131.914C174.406 131.477 173.891 131.102 173.344 130.789C173.312 130.773 173.281 130.758 173.25 130.742C173.25 130.742 173.242 130.742 173.227 130.742C172.805 130.508 172.375 130.32 171.938 130.18C171.438 130.008 170.938 129.898 170.438 129.852C170.328 129.836 170.211 129.82 170.086 129.805C169.336 129.773 168.602 129.828 167.883 129.969C166.805 130.203 165.766 130.617 164.766 131.211C163.938 131.68 163.156 132.25 162.422 132.922C162.109 133.203 161.805 133.5 161.508 133.812C161.117 134.266 160.742 134.719 160.383 135.172V135.195L158.93 137.023L158.789 137.211L157.477 138.852L157.195 139.203L156.047 140.656L155.766 141.008L155.273 141.641C154.461 142.578 153.633 143.516 152.789 144.453C151.289 146.125 149.742 147.766 148.148 149.375C147.648 149.875 147.148 150.367 146.648 150.852L155.602 142.625L157.477 140.891L158.438 139.977V159.312L158.461 159.336C158.461 159.445 158.469 159.562 158.484 159.688C158.75 161.797 159.586 163.547 160.992 164.938C162.414 166.328 164.102 167.023 166.055 167.023H157.383C157.383 167.023 157.375 167.016 157.359 167H153.938C153.922 167.016 153.906 167.023 153.891 167.023H145.242C147.18 167.023 148.852 166.336 150.258 164.961C151.68 163.57 152.523 161.82 152.789 159.711V150.266C152.789 149.5 152.602 149.016 152.227 148.812C151.852 148.609 151.367 148.594 150.773 148.766C150.195 148.922 149.578 149.188 148.922 149.562C148.266 149.922 147.656 150.305 147.094 150.711C146.547 151.102 146.109 151.43 145.781 151.695C143.344 154.023 140.789 156.227 138.117 158.305C137.336 158.898 136.547 159.477 135.75 160.039C134.047 161.258 132.273 162.367 130.43 163.367C130.305 163.43 130.18 163.5 130.055 163.578C130.023 163.594 129.984 163.609 129.938 163.625C129.828 163.688 129.727 163.742 129.633 163.789C129.586 163.82 129.539 163.844 129.492 163.859C129.461 163.875 129.438 163.891 129.422 163.906C129.406 163.906 129.398 163.906 129.398 163.906C129.32 163.953 129.242 163.992 129.164 164.023C129.039 164.086 128.922 164.148 128.812 164.211C128.781 164.227 128.75 164.242 128.719 164.258C128.703 164.258 128.695 164.258 128.695 164.258C128.555 164.32 128.414 164.383 128.273 164.445C128.227 164.477 128.18 164.5 128.133 164.516C127.852 164.641 127.57 164.766 127.289 164.891C127.133 164.953 126.977 165.016 126.82 165.078C125.555 165.609 124.25 166.039 122.906 166.367C122.812 166.383 122.719 166.406 122.625 166.438C122.5 166.469 122.383 166.5 122.273 166.531C122.195 166.547 122.109 166.57 122.016 166.602C121.922 166.617 121.828 166.633 121.734 166.648C121.688 166.664 121.648 166.672 121.617 166.672C121.555 166.688 121.492 166.703 121.43 166.719C121.352 166.734 121.266 166.75 121.172 166.766C119.688 167 118.219 167 116.766 166.766C116.531 166.734 116.297 166.703 116.062 166.672C115.953 166.656 115.852 166.633 115.758 166.602C115.68 166.586 115.617 166.562 115.57 166.531C111.977 165.641 109.148 163.617 107.086 160.461C105.664 158.07 105.039 155.531 105.211 152.844C105.383 150.141 106.312 147.688 108 145.484C109.656 143.438 111.695 141.984 114.117 141.125C116.539 140.25 119.047 140.055 121.641 140.539C125.188 141.32 127.992 143.133 130.055 145.977V133.977C129.852 131.898 129.141 130.172 127.922 128.797C126.719 127.422 125.281 126.734 123.609 126.734C122.094 126.734 120.766 127.297 119.625 128.422C118.484 129.531 117.719 130.969 117.328 132.734C117.297 132.859 117.273 133 117.258 133.156C117.258 133.172 117.25 133.195 117.234 133.227C117.234 133.258 117.234 133.289 117.234 133.32C117.219 133.477 117.203 133.633 117.188 133.789C117.188 133.852 117.18 133.914 117.164 133.977C117.164 133.977 117.164 133.984 117.164 134C117.164 134.031 117.164 134.055 117.164 134.07C117.164 134.086 117.164 134.094 117.164 134.094L117.141 134.398C117.141 134.461 117.125 134.531 117.094 134.609C116.969 135 116.758 135.32 116.461 135.57C116.086 135.898 115.648 136.062 115.148 136.062C114.352 136.062 113.742 135.688 113.32 134.938C113.289 134.859 113.258 134.789 113.227 134.727C113.195 134.617 113.172 134.508 113.156 134.398C113.141 134.352 113.133 134.312 113.133 134.281C113.117 134.203 113.109 134.117 113.109 134.023C113.109 134.008 113.109 133.984 113.109 133.953C113.109 133.688 113.188 133.383 113.344 133.039C113.5 132.68 113.688 132.328 113.906 131.984C114.125 131.641 114.32 131.352 114.492 131.117C114.664 130.867 114.758 130.727 114.773 130.695C115.289 129.992 115.859 129.344 116.484 128.75C117.562 127.766 118.789 127.008 120.164 126.477C120.242 126.445 120.328 126.414 120.422 126.383C120.578 126.336 120.734 126.289 120.891 126.242C121.172 126.148 121.461 126.07 121.758 126.008C121.789 126.008 121.828 126 121.875 125.984C122.344 125.891 122.812 125.828 123.281 125.797C124.25 125.734 125.203 125.797 126.141 125.984C128.969 126.594 131.297 128.055 133.125 130.367C133.453 130.789 133.75 131.234 134.016 131.703C134.75 133 135.234 134.367 135.469 135.805C135.641 136.711 135.703 137.625 135.656 138.547C135.688 138.859 135.703 139.18 135.703 139.508V158.938C136.859 158.109 137.984 157.242 139.078 156.336C142.469 153.57 145.672 150.617 148.688 147.477C150.094 146.023 151.461 144.547 152.789 143.047V132.523C151.773 132.695 150.805 132.602 149.883 132.242C149.836 132.227 149.789 132.203 149.742 132.172C149.492 132.031 149.367 131.828 149.367 131.562C149.367 131.359 149.438 131.195 149.578 131.07C149.719 130.93 149.883 130.859 150.07 130.859C150.164 130.859 150.242 130.867 150.305 130.883C150.352 130.898 150.391 130.922 150.422 130.953C151.094 131.234 151.812 131.375 152.578 131.375C153.375 131.375 154.125 131.219 154.828 130.906C155.422 130.625 155.953 130.258 156.422 129.805C156.516 129.695 156.609 129.586 156.703 129.477C156.703 129.492 156.703 129.5 156.703 129.5C156.703 129.484 156.703 129.477 156.703 129.477C157.406 128.664 157.984 127.75 158.438 126.734V136.297C158.969 135.516 159.539 134.75 160.148 134C160.242 133.891 160.336 133.781 160.43 133.672C161.867 131.953 163.523 130.5 165.398 129.312C167.289 128.125 169.367 127.383 171.633 127.086C173.148 126.914 174.641 127.039 176.109 127.461C176.516 127.57 176.906 127.703 177.281 127.859C177.438 127.922 177.586 127.984 177.727 128.047H177.773C178.414 128.312 179.016 128.633 179.578 129.008C180.031 129.258 180.445 129.578 180.82 129.969C180.82 129.969 180.82 129.977 180.82 129.992C180.836 129.992 180.844 129.992 180.844 129.992C181.109 130.289 181.352 130.617 181.57 130.977C181.758 131.273 181.914 131.586 182.039 131.914C182.117 132.086 182.18 132.258 182.227 132.43C182.32 132.742 182.398 133.07 182.461 133.414C182.477 133.57 182.492 133.727 182.508 133.883V137.797V159.5C182.508 159.516 182.508 159.531 182.508 159.547C182.508 159.594 182.516 159.633 182.531 159.664ZM119.227 141.219C117.508 142.031 116.102 143.562 115.008 145.812C113.93 148.062 113.391 150.664 113.391 153.617C113.391 156.523 113.922 159.094 114.984 161.328C116.047 163.562 117.414 165.102 119.086 165.945C119.977 165.914 120.859 165.82 121.734 165.664C122 165.617 122.266 165.562 122.531 165.5C124.406 165.047 126.211 164.406 127.945 163.578C127.992 163.562 128.039 163.539 128.086 163.508C128.102 163.508 128.117 163.5 128.133 163.484C128.789 163.172 129.43 162.844 130.055 162.5C130.102 162.484 130.141 162.469 130.172 162.453C130.094 162.094 130.055 161.734 130.055 161.375V147.664C128.945 145.742 127.43 144.211 125.508 143.07C123.602 141.914 121.508 141.297 119.227 141.219ZM135.938 161C136.422 162.766 137.328 164.211 138.656 165.336C139.984 166.461 141.516 167.023 143.25 167.023H135.703C135.172 167.023 134.664 166.953 134.18 166.812C133.227 166.531 132.406 166.047 131.719 165.359C131.359 165 131.055 164.602 130.805 164.164C132.586 163.211 134.297 162.156 135.938 161ZM218.297 128.516C222.047 130.25 225.008 132.875 227.18 136.391C229.398 140.094 230.359 144.109 230.062 148.438C229.703 152.625 228.195 156.352 225.539 159.617C222.773 162.914 219.359 165.117 215.297 166.227C211.234 167.336 207.172 167.18 203.109 165.758C199.234 164.305 196.078 161.906 193.641 158.562C191.172 155.047 189.922 151.148 189.891 146.867V146.844C189.891 145.812 189.969 144.781 190.125 143.75C190.828 139.562 192.617 135.969 195.492 132.969C198.367 129.969 201.875 128.023 206.016 127.133C210.25 126.32 214.344 126.781 218.297 128.516ZM198.188 146.867C198.188 150.383 198.719 153.594 199.781 156.5C200.844 159.406 202.258 161.711 204.023 163.414C205.805 165.117 207.797 165.992 210 166.039H210.023C212.227 165.992 214.211 165.117 215.977 163.414C217.758 161.711 219.18 159.406 220.242 156.5C221.305 153.594 221.836 150.383 221.836 146.867C221.836 143.336 221.305 140.117 220.242 137.211C219.18 134.305 217.758 132 215.977 130.297C214.195 128.594 212.211 127.719 210.023 127.672H210C207.797 127.719 205.805 128.594 204.023 130.297C202.258 132 200.844 134.305 199.781 137.211C198.719 140.117 198.188 143.336 198.188 146.867ZM263.836 150.781C264.352 151.391 264.789 152.055 265.148 152.773C265.789 154.07 266.055 155.461 265.945 156.945C265.945 157.008 265.945 157.062 265.945 157.109C265.789 158.328 265.391 159.453 264.75 160.484C264.125 161.516 263.344 162.422 262.406 163.203C260 165.141 257.234 166.359 254.109 166.859C250.984 167.359 247.945 167.234 244.992 166.484C243.352 166.078 241.758 165.43 240.211 164.539C238.664 163.633 237.375 162.492 236.344 161.117C235.328 159.742 234.797 158.133 234.75 156.289V156.266C234.75 155.703 234.812 155.148 234.938 154.602C235.062 153.992 235.258 153.406 235.523 152.844C235.523 152.828 235.531 152.812 235.547 152.797C235.703 152.469 235.914 152.203 236.18 152C236.352 151.875 236.539 151.781 236.742 151.719C236.945 151.641 237.156 151.602 237.375 151.602H237.398C237.43 151.602 237.461 151.609 237.492 151.625C237.523 151.625 237.555 151.625 237.586 151.625C237.602 151.625 237.617 151.625 237.633 151.625C237.648 151.625 237.664 151.625 237.68 151.625C237.695 151.641 237.719 151.648 237.75 151.648C237.781 151.648 237.812 151.656 237.844 151.672C237.859 151.672 237.883 151.672 237.914 151.672C237.914 151.688 237.922 151.695 237.938 151.695C237.938 151.695 237.945 151.695 237.961 151.695C237.992 151.695 238.023 151.703 238.055 151.719C238.07 151.734 238.094 151.742 238.125 151.742C238.156 151.758 238.195 151.773 238.242 151.789C238.258 151.805 238.273 151.82 238.289 151.836C238.305 151.836 238.312 151.836 238.312 151.836C238.328 151.852 238.344 151.859 238.359 151.859C238.375 151.875 238.391 151.891 238.406 151.906C238.438 151.922 238.469 151.938 238.5 151.953C238.531 151.969 238.555 151.984 238.57 152C238.633 152.047 238.688 152.094 238.734 152.141C238.766 152.156 238.789 152.18 238.805 152.211C238.836 152.227 238.859 152.25 238.875 152.281C238.891 152.297 238.906 152.312 238.922 152.328C238.953 152.359 238.977 152.391 238.992 152.422C239.008 152.438 239.023 152.453 239.039 152.469C239.055 152.5 239.07 152.523 239.086 152.539C239.086 152.555 239.094 152.57 239.109 152.586C239.156 152.648 239.195 152.719 239.227 152.797C239.227 152.828 239.234 152.852 239.25 152.867C239.266 152.914 239.281 152.953 239.297 152.984C239.297 153.016 239.305 153.039 239.32 153.055C239.336 153.102 239.344 153.141 239.344 153.172C239.344 153.172 239.344 153.18 239.344 153.195C239.344 153.211 239.352 153.227 239.367 153.242C239.383 153.43 239.359 153.609 239.297 153.781C239.281 153.828 239.266 153.875 239.25 153.922C239.234 153.969 239.219 154.016 239.203 154.062C239.203 154.062 239.203 154.07 239.203 154.086C239.188 154.133 239.172 154.18 239.156 154.227C239.156 154.242 239.156 154.258 239.156 154.273C239.094 154.445 239.047 154.625 239.016 154.812C238.906 155.312 238.852 155.82 238.852 156.336C238.852 157.945 239.32 159.43 240.258 160.789C241.195 162.148 242.461 163.289 244.055 164.211C245.648 165.117 247.469 165.734 249.516 166.062C249.969 166.125 250.422 166.172 250.875 166.203C250.969 166.203 251.062 166.203 251.156 166.203C251.75 166.188 252.336 166.141 252.914 166.062C252.992 166.047 253.078 166.016 253.172 165.969C253.25 165.938 253.328 165.906 253.406 165.875C253.422 165.875 253.43 165.875 253.43 165.875C253.43 165.859 253.43 165.852 253.43 165.852C253.43 165.852 253.438 165.852 253.453 165.852C253.5 165.82 253.555 165.789 253.617 165.758C253.648 165.742 253.68 165.727 253.711 165.711C253.773 165.68 253.836 165.641 253.898 165.594C253.914 165.594 253.922 165.586 253.922 165.57C254 165.523 254.07 165.477 254.133 165.43C254.148 165.43 254.156 165.43 254.156 165.43C254.156 165.43 254.156 165.422 254.156 165.406C254.234 165.359 254.305 165.305 254.367 165.242C254.367 165.242 254.375 165.242 254.391 165.242C254.453 165.18 254.516 165.117 254.578 165.055C254.609 165.039 254.633 165.023 254.648 165.008C254.695 164.961 254.75 164.906 254.812 164.844C254.828 164.828 254.836 164.82 254.836 164.82C254.867 164.805 254.891 164.781 254.906 164.75C254.906 164.75 254.914 164.742 254.93 164.727C254.93 164.711 254.938 164.703 254.953 164.703C254.984 164.672 255.023 164.633 255.07 164.586C255.086 164.555 255.109 164.523 255.141 164.492C255.141 164.492 255.148 164.484 255.164 164.469C255.18 164.453 255.188 164.438 255.188 164.422C255.219 164.406 255.242 164.383 255.258 164.352C255.383 164.195 255.5 164.039 255.609 163.883C255.641 163.852 255.664 163.82 255.68 163.789C255.727 163.711 255.781 163.633 255.844 163.555C255.844 163.539 255.844 163.531 255.844 163.531C255.844 163.531 255.852 163.523 255.867 163.508C255.914 163.43 255.953 163.359 255.984 163.297C256 163.281 256.008 163.273 256.008 163.273C256.023 163.242 256.039 163.211 256.055 163.18C256.102 163.102 256.148 163.023 256.195 162.945C256.195 162.93 256.203 162.914 256.219 162.898C256.266 162.805 256.312 162.711 256.359 162.617C256.359 162.602 256.367 162.586 256.383 162.57C256.43 162.477 256.477 162.375 256.523 162.266C256.57 162.141 256.617 162.023 256.664 161.914C256.664 161.914 256.672 161.914 256.688 161.914C256.719 161.805 256.758 161.695 256.805 161.586C256.836 161.523 256.859 161.453 256.875 161.375C256.891 161.359 256.898 161.344 256.898 161.328C256.914 161.281 256.93 161.242 256.945 161.211C256.977 161.102 257.008 160.984 257.039 160.859C257.086 160.719 257.133 160.57 257.18 160.414C257.18 160.398 257.18 160.391 257.18 160.391C257.211 160.281 257.242 160.18 257.273 160.086C257.289 160.023 257.305 159.969 257.32 159.922C257.336 159.812 257.359 159.711 257.391 159.617C257.391 159.617 257.391 159.609 257.391 159.594C257.422 159.469 257.445 159.344 257.461 159.219C257.461 159.203 257.469 159.18 257.484 159.148C257.5 159.023 257.516 158.898 257.531 158.773C257.531 158.773 257.539 158.766 257.555 158.75C257.57 158.625 257.586 158.5 257.602 158.375C257.602 158.375 257.602 158.367 257.602 158.352C257.602 158.336 257.602 158.312 257.602 158.281C257.602 158.281 257.609 158.281 257.625 158.281C257.625 158.156 257.633 158.039 257.648 157.93C257.648 157.914 257.656 157.891 257.672 157.859C257.672 157.734 257.68 157.609 257.695 157.484C257.695 157.469 257.695 157.445 257.695 157.414C257.711 157.289 257.719 157.164 257.719 157.039C257.719 157.023 257.719 157.016 257.719 157.016C257.719 157 257.719 156.992 257.719 156.992C257.719 156.977 257.719 156.969 257.719 156.969C257.734 156.906 257.742 156.844 257.742 156.781C257.742 156.766 257.742 156.75 257.742 156.734C257.742 156.578 257.742 156.422 257.742 156.266C257.742 154.516 257.32 152.914 256.477 151.461C255.648 150.008 254.531 148.828 253.125 147.922C252.094 147.359 250.969 146.953 249.75 146.703C248.531 146.453 247.664 146.305 247.148 146.258C247.148 146.258 247.141 146.258 247.125 146.258C247.109 146.258 247.094 146.258 247.078 146.258C246.969 146.242 246.914 146.234 246.914 146.234C246.602 146.203 246.289 146.156 245.977 146.094C245.773 146.062 245.578 146.031 245.391 146C245.047 145.922 244.711 145.836 244.383 145.742C243.727 145.57 243.07 145.352 242.414 145.086C240.539 144.305 238.938 143.188 237.609 141.734C236.281 140.266 235.578 138.484 235.5 136.391V136.367C235.5 135.836 235.555 135.312 235.664 134.797C236.039 133.188 236.781 131.812 237.891 130.672C239.016 129.531 240.328 128.625 241.828 127.953C243.344 127.266 244.867 126.812 246.398 126.594C248.977 126.219 251.57 126.391 254.18 127.109C256.789 127.812 258.969 129.18 260.719 131.211C261.906 132.633 262.562 134.258 262.688 136.086C262.703 136.195 262.711 136.312 262.711 136.438C262.711 136.562 262.695 136.688 262.664 136.812C262.555 137.344 262.289 137.758 261.867 138.055C261.867 138.07 261.867 138.078 261.867 138.078C261.852 138.078 261.844 138.078 261.844 138.078C261.734 138.156 261.609 138.227 261.469 138.289C261.469 138.289 261.461 138.289 261.445 138.289C261.242 138.383 261.016 138.43 260.766 138.43C260.734 138.445 260.703 138.453 260.672 138.453C260.641 138.453 260.617 138.445 260.602 138.43C260.57 138.43 260.539 138.43 260.508 138.43C260.477 138.43 260.445 138.43 260.414 138.43C260.383 138.43 260.359 138.422 260.344 138.406C259.922 138.344 259.562 138.164 259.266 137.867C259.25 137.852 259.234 137.836 259.219 137.82C259.188 137.789 259.164 137.766 259.148 137.75C259.117 137.719 259.086 137.68 259.055 137.633C259.039 137.602 259.023 137.578 259.008 137.562C258.992 137.547 258.977 137.523 258.961 137.492C258.945 137.477 258.938 137.461 258.938 137.445C258.922 137.43 258.914 137.414 258.914 137.398C258.898 137.398 258.891 137.398 258.891 137.398C258.891 137.383 258.891 137.375 258.891 137.375C258.812 137.203 258.758 137.047 258.727 136.906C258.711 136.75 258.703 136.633 258.703 136.555C258.703 136.555 258.703 136.547 258.703 136.531C258.703 136.516 258.711 136.492 258.727 136.461C258.727 136.336 258.727 136.219 258.727 136.109C258.727 136.047 258.727 135.984 258.727 135.922C258.633 133.875 257.883 132.094 256.477 130.578C255.07 129.062 253.25 128.008 251.016 127.414C250.969 127.414 250.93 127.414 250.898 127.414C250.883 127.398 250.859 127.391 250.828 127.391C250.109 127.328 249.391 127.305 248.672 127.32C247.234 127.727 246.047 128.758 245.109 130.414C244.188 132.055 243.703 134.047 243.656 136.391V136.414C243.656 136.508 243.656 136.602 243.656 136.695C243.656 136.711 243.664 136.727 243.68 136.742C243.68 136.758 243.68 136.781 243.68 136.812C243.68 136.828 243.68 136.844 243.68 136.859C243.68 136.906 243.68 136.945 243.68 136.977C243.68 136.992 243.68 137 243.68 137C243.68 137.078 243.68 137.156 243.68 137.234C243.695 137.281 243.703 137.328 243.703 137.375C243.703 137.453 243.703 137.539 243.703 137.633C243.719 137.633 243.727 137.633 243.727 137.633C243.727 137.648 243.727 137.656 243.727 137.656C243.727 137.734 243.734 137.812 243.75 137.891C243.75 137.906 243.75 137.922 243.75 137.938C243.75 137.969 243.75 138.008 243.75 138.055C243.766 138.086 243.773 138.117 243.773 138.148C243.773 138.164 243.773 138.188 243.773 138.219C243.789 138.297 243.805 138.375 243.82 138.453C243.82 138.516 243.828 138.586 243.844 138.664C243.844 138.664 243.844 138.672 243.844 138.688C243.844 138.719 243.852 138.758 243.867 138.805C243.883 138.898 243.898 139 243.914 139.109C243.93 139.172 243.945 139.234 243.961 139.297C243.977 139.375 243.992 139.453 244.008 139.531C244.008 139.531 244.008 139.539 244.008 139.555C244.039 139.633 244.062 139.711 244.078 139.789C244.078 139.805 244.078 139.812 244.078 139.812C244.094 139.891 244.117 139.969 244.148 140.047C244.148 140.047 244.148 140.055 244.148 140.07C244.148 140.07 244.148 140.078 244.148 140.094C244.164 140.156 244.188 140.219 244.219 140.281C244.234 140.375 244.258 140.461 244.289 140.539C244.289 140.555 244.297 140.57 244.312 140.586C244.312 140.602 244.32 140.625 244.336 140.656C244.336 140.672 244.336 140.688 244.336 140.703C244.352 140.734 244.367 140.773 244.383 140.82C244.383 140.836 244.383 140.844 244.383 140.844C244.43 140.953 244.477 141.062 244.523 141.172C244.523 141.203 244.531 141.227 244.547 141.242C244.547 141.258 244.555 141.273 244.57 141.289C244.602 141.398 244.641 141.5 244.688 141.594C244.688 141.594 244.688 141.602 244.688 141.617C244.703 141.617 244.711 141.617 244.711 141.617C244.742 141.695 244.773 141.773 244.805 141.852C244.82 141.867 244.828 141.891 244.828 141.922C244.859 141.984 244.898 142.047 244.945 142.109C244.961 142.156 244.984 142.211 245.016 142.273C245.5 143.039 246.117 143.68 246.867 144.195C247.492 144.555 248.164 144.828 248.883 145.016C249.617 145.203 250.25 145.328 250.781 145.391C251.328 145.438 251.602 145.461 251.602 145.461C251.992 145.477 252.383 145.508 252.773 145.555C253.18 145.602 253.586 145.656 253.992 145.719C254.945 145.875 255.891 146.102 256.828 146.398C258.125 146.805 259.367 147.359 260.555 148.062C261.758 148.75 262.82 149.609 263.742 150.641C263.773 150.688 263.805 150.734 263.836 150.781Z" fill="white"/>
<path d="M35.7817 128.352L43.2698 128.544C43.7178 128.544 44.0538 128.688 44.2778 128.976C44.5337 129.232 44.6617 129.664 44.6617 130.272V187.68C44.6617 188.448 44.4537 189.024 44.0378 189.408C43.6217 189.76 43.0937 190 42.4537 190.128L35.4457 191.04C34.9977 191.168 34.7737 191.328 34.7737 191.52C34.7737 191.648 34.8377 191.76 34.9657 191.856C35.0937 191.952 35.2537 192 35.4457 192H63.5738C63.7978 192 63.9578 191.968 64.0538 191.904C64.1498 191.808 64.1978 191.696 64.1978 191.568C64.1978 191.376 63.9898 191.248 63.5738 191.184L56.6618 190.128C56.0538 189.968 55.5577 189.696 55.1737 189.312C54.8218 188.928 54.6458 188.384 54.6458 187.68V123.216C54.6458 122.704 54.4538 122.448 54.0697 122.448C53.9097 122.448 53.7657 122.512 53.6377 122.64C53.5417 122.736 53.4297 122.912 53.3017 123.168C52.3098 124.832 51.0458 125.92 49.5097 126.432C48.0058 126.944 45.8778 127.2 43.1257 127.2L35.7817 127.392C35.5897 127.392 35.4297 127.44 35.3017 127.536C35.2057 127.632 35.1577 127.744 35.1577 127.872C35.1577 128 35.2057 128.112 35.3017 128.208C35.3977 128.304 35.5577 128.352 35.7817 128.352ZM61.0657 178.32C61.0657 176.72 61.5457 175.392 62.5057 174.336C63.4977 173.248 64.6817 172.704 66.0577 172.704C67.2737 172.704 68.2657 173.168 69.0337 174.096C69.8337 175.024 70.2337 176.272 70.2337 177.84V183.792C70.2337 186.288 71.1297 188.336 72.9217 189.936C74.7457 191.536 77.3697 192.336 80.7937 192.336C84.2177 192.336 87.0657 190.688 89.3377 187.392C91.6417 184.064 92.7937 179.232 92.7937 172.896C92.7937 166.4 91.7377 161.472 89.6257 158.112C87.5137 154.752 84.5377 153.072 80.6977 153.072C78.6497 153.072 76.6817 153.504 74.7937 154.368C72.9377 155.232 71.2417 156.432 69.7057 157.968C68.1697 159.504 66.8897 161.28 65.8657 163.296C65.7057 163.52 65.5457 163.68 65.3857 163.776C65.2577 163.872 65.0977 163.92 64.9057 163.92C64.7137 163.92 64.5537 163.856 64.4257 163.728C64.3297 163.6 64.2817 163.44 64.2817 163.248V124.704C64.2817 124.416 64.3457 124.192 64.4737 124.032C64.6337 123.84 64.8577 123.744 65.1457 123.744C65.3377 123.744 65.5297 123.792 65.7217 123.888C65.9457 123.952 66.2017 124.064 66.4897 124.224C68.4737 125.216 70.5697 126.048 72.7777 126.72C74.9857 127.392 77.2577 127.888 79.5937 128.208C81.9617 128.528 84.3297 128.688 86.6977 128.688C90.3457 128.688 93.5937 128.16 96.4417 127.104C99.2897 126.048 101.05 124.496 101.722 122.448C101.786 122.32 101.866 122.24 101.962 122.208C102.058 122.144 102.154 122.112 102.25 122.112C102.346 122.144 102.41 122.192 102.442 122.256C102.506 122.32 102.538 122.432 102.538 122.592C102.09 126.144 101.13 129.024 99.6578 131.232C98.2177 133.408 96.2337 135.008 93.7057 136.032C91.1777 137.024 88.0577 137.52 84.3457 137.52C81.9777 137.52 79.6097 137.344 77.2417 136.992C74.9057 136.608 72.6817 136.064 70.5697 135.36C68.4577 134.624 66.5537 133.744 64.8577 132.72L65.3857 132.336V163.104L64.9057 163.056C66.1857 160.72 67.6897 158.736 69.4177 157.104C71.1777 155.44 73.1937 154.16 75.4657 153.264C77.7377 152.368 80.2657 151.92 83.0497 151.92C86.9857 151.92 90.4257 152.752 93.3697 154.416C96.3137 156.08 98.6017 158.4 100.234 161.376C101.866 164.352 102.682 167.824 102.682 171.792C102.682 176.08 101.738 179.824 99.8497 183.024C97.9937 186.192 95.3857 188.656 92.0257 190.416C88.6657 192.144 84.7777 193.008 80.3617 193.008C76.4577 193.008 73.0497 192.352 70.1377 191.04C67.2577 189.728 65.0177 187.968 63.4177 185.76C61.8497 183.52 61.0657 181.04 61.0657 178.32Z" fill="white"/>
<path d="M304.611 65.6797C305.068 65.8789 305.549 65.9785 306.053 65.9785C305.549 65.9785 305.068 66.0723 304.611 66.2598C304.166 66.459 303.773 66.7285 303.434 67.0684C303.094 67.4082 302.824 67.8008 302.625 68.2461C302.438 68.6914 302.344 69.1719 302.344 69.6875C302.344 69.1719 302.244 68.6914 302.045 68.2461C301.857 67.8008 301.594 67.4082 301.254 67.0684C300.914 66.7285 300.516 66.459 300.059 66.2598C299.613 66.0723 299.133 65.9785 298.617 65.9785C299.133 65.9785 299.613 65.8789 300.059 65.6797C300.516 65.4922 300.914 65.2285 301.254 64.8887C301.594 64.5488 301.857 64.1504 302.045 63.6934C302.244 63.248 302.344 62.7676 302.344 62.252C302.344 62.7676 302.438 63.248 302.625 63.6934C302.824 64.1504 303.094 64.5488 303.434 64.8887C303.773 65.2285 304.166 65.4922 304.611 65.6797ZM296.49 53.1113C296.244 53.252 296.051 53.4453 295.91 53.6914C295.758 53.9375 295.682 54.207 295.682 54.5C295.682 54.207 295.611 53.9375 295.471 53.6914C295.33 53.4453 295.137 53.252 294.891 53.1113C294.645 52.9707 294.375 52.9004 294.082 52.9004C294.375 52.9004 294.645 52.8301 294.891 52.6895C295.137 52.5371 295.33 52.3438 295.471 52.1094C295.611 51.8633 295.682 51.5938 295.682 51.3008C295.682 51.5938 295.758 51.8633 295.91 52.1094C296.051 52.3438 296.244 52.5371 296.49 52.6895C296.725 52.8301 296.988 52.9004 297.281 52.9004C296.988 52.9004 296.725 52.9707 296.49 53.1113ZM299.654 58.5605C299.514 58.3262 299.32 58.1328 299.074 57.9805C298.828 57.8398 298.559 57.7695 298.266 57.7695C298.559 57.7695 298.828 57.6992 299.074 57.5586C299.32 57.4062 299.514 57.2129 299.654 56.9785C299.795 56.7324 299.865 56.4629 299.865 56.1699C299.865 56.4629 299.941 56.7324 300.094 56.9785C300.234 57.2129 300.428 57.4062 300.674 57.5586C300.908 57.6992 301.172 57.7695 301.465 57.7695C301.172 57.7695 300.908 57.8398 300.674 57.9805C300.428 58.1328 300.234 58.3262 300.094 58.5605C299.941 58.8066 299.865 59.0762 299.865 59.3691C299.865 59.0762 299.795 58.8066 299.654 58.5605ZM300.955 74.3281C301.096 74.5742 301.289 74.7676 301.535 74.9082C301.781 75.0488 302.051 75.1191 302.344 75.1191C302.051 75.1191 301.781 75.1953 301.535 75.3477C301.289 75.4883 301.096 75.6758 300.955 75.9102C300.814 76.1562 300.744 76.4258 300.744 76.7188C300.744 76.4258 300.668 76.1562 300.516 75.9102C300.375 75.6758 300.182 75.4883 299.936 75.3477C299.701 75.1953 299.438 75.1191 299.145 75.1191C299.438 75.1191 299.701 75.0488 299.936 74.9082C300.182 74.7676 300.375 74.5742 300.516 74.3281C300.668 74.082 300.744 73.8125 300.744 73.5195C300.744 73.8125 300.814 74.082 300.955 74.3281ZM297.51 79.8652C297.65 80.0996 297.844 80.293 298.09 80.4453C298.324 80.5859 298.588 80.6562 298.881 80.6562C298.588 80.6562 298.324 80.7266 298.09 80.8672C297.844 81.0195 297.65 81.2129 297.51 81.4473C297.357 81.6934 297.281 81.9629 297.281 82.2559C297.281 81.9629 297.211 81.6934 297.07 81.4473C296.93 81.2129 296.736 81.0195 296.49 80.8672C296.244 80.7266 295.975 80.6562 295.682 80.6562C295.975 80.6562 296.244 80.5859 296.49 80.4453C296.736 80.293 296.93 80.0996 297.07 79.8652C297.211 79.6191 297.281 79.3496 297.281 79.0566C297.281 79.3496 297.357 79.6191 297.51 79.8652ZM270.018 67.4902C270.018 69.9043 270.469 72.166 271.371 74.2754C272.273 76.3848 273.521 78.2363 275.115 79.8301C276.709 81.4238 278.561 82.6777 280.67 83.5918C282.791 84.4941 285.059 84.9453 287.473 84.9453C289.816 84.9453 292.02 84.5117 294.082 83.6445C293.566 84.0195 293.027 84.377 292.465 84.7168C289.441 86.5098 286.102 87.4062 282.445 87.4062C278.777 87.4062 275.438 86.5098 272.426 84.7168C269.414 82.9238 267.012 80.5215 265.219 77.5098C263.426 74.498 262.529 71.1582 262.529 67.4902C262.529 63.8223 263.426 60.4824 265.219 57.4707C267.012 54.459 269.414 52.0566 272.426 50.2637C275.438 48.4707 278.777 47.5742 282.445 47.5742C286.102 47.5742 289.441 48.4707 292.465 50.2637C293.027 50.6035 293.566 50.9609 294.082 51.3359C292.008 50.4688 289.805 50.0352 287.473 50.0352C285.059 50.0352 282.791 50.4922 280.67 51.4062C278.561 52.3086 276.709 53.5566 275.115 55.1504C273.521 56.7441 272.273 58.5957 271.371 60.7051C270.469 62.8145 270.018 65.0762 270.018 67.4902Z" fill="white"/>
</svg>
