<svg width="68" height="68" viewBox="0 0 68 68" fill="none" xmlns="http://www.w3.org/2000/svg">
<path d="M46.9609 36.6875C49.1328 38.875 51.6641 40.5859 54.5547 41.8203C57.4453 43.0703 60.5391 43.6953 63.8359 43.6953C60.5391 43.6953 57.4453 44.3125 54.5547 45.5469C51.6641 46.7812 49.1328 48.4922 46.9609 50.6797C44.7734 52.8516 43.0625 55.3828 41.8281 58.2734C40.5781 61.1641 39.9531 64.2578 39.9531 67.5547C39.9531 64.2578 39.3359 61.1641 38.1016 58.2734C36.8672 55.3828 35.1562 52.8516 32.9688 50.6797C30.7969 48.4922 28.2656 46.7812 25.375 45.5469C22.4844 44.3125 19.3906 43.6953 16.0938 43.6953C19.3906 43.6953 22.4844 43.0703 25.375 41.8203C28.2656 40.5859 30.7969 38.875 32.9688 36.6875C35.1562 34.5156 36.8672 31.9844 38.1016 29.0938C39.3359 26.2031 39.9531 23.1094 39.9531 19.8125C39.9531 23.1094 40.5781 26.2031 41.8281 29.0938C43.0625 31.9844 44.7734 34.5156 46.9609 36.6875ZM58.6328 6.00781C59.5547 7.55469 60.7969 8.78906 62.3594 9.71094C63.9062 10.6328 65.625 11.0938 67.5156 11.0938C65.625 11.0938 63.9062 11.5547 62.3594 12.4766C60.7969 13.3984 59.5547 14.6406 58.6328 16.2031C57.7109 17.75 57.25 19.4688 57.25 21.3594C57.25 19.4688 56.7891 17.75 55.8672 16.2031C54.9453 14.6406 53.7109 13.3984 52.1641 12.4766C50.6016 11.5547 48.875 11.0938 46.9844 11.0938C48.875 11.0938 50.6016 10.6328 52.1641 9.71094C53.7109 8.78906 54.9453 7.55469 55.8672 6.00781C56.7891 4.44531 57.25 2.71875 57.25 0.828125C57.25 2.71875 57.7109 4.44531 58.6328 6.00781ZM61.8672 11.6797C62.2422 11.4609 62.6172 11.2656 62.9922 11.0938C62.6172 10.9219 62.2422 10.7266 61.8672 10.5078C60.1797 9.50781 58.8359 8.16406 57.8359 6.47656C57.6172 6.11719 57.4219 5.74219 57.25 5.35156C57.0781 5.74219 56.8906 6.11719 56.6875 6.47656C55.6719 8.16406 54.3203 9.50781 52.6328 10.5078C52.2734 10.7266 51.8984 10.9219 51.5078 11.0938C51.8984 11.2656 52.2734 11.4609 52.6328 11.6797C54.3203 12.6797 55.6719 14.0234 56.6875 15.7109C56.8906 16.0703 57.0781 16.4453 57.25 16.8359C57.4219 16.4453 57.6172 16.0703 57.8359 15.7109C58.8359 14.0234 60.1797 12.6797 61.8672 11.6797ZM15.3672 27.0781C16.9297 28 18.6562 28.4609 20.5469 28.4609C18.6562 28.4609 16.9297 28.9219 15.3672 29.8438C13.8203 30.7656 12.5859 32 11.6641 33.5469C10.7422 35.1094 10.2812 36.8359 10.2812 38.7266C10.2812 36.8359 9.82031 35.1094 8.89844 33.5469C7.97656 32 6.73438 30.7656 5.17188 29.8438C3.625 28.9219 1.90625 28.4609 0.015625 28.4609C1.90625 28.4609 3.625 28 5.17188 27.0781C6.73438 26.1562 7.97656 24.9141 8.89844 23.3516C9.82031 21.8047 10.2812 20.0859 10.2812 18.1953C10.2812 20.0859 10.7422 21.8047 11.6641 23.3516C12.5859 24.9141 13.8203 26.1562 15.3672 27.0781ZM14.8984 29.0234C15.2578 28.8203 15.6328 28.6328 16.0234 28.4609C15.6328 28.2891 15.2578 28.0938 14.8984 27.875C13.2109 26.875 11.8594 25.5312 10.8438 23.8438C10.6406 23.4688 10.4531 23.0938 10.2812 22.7188C10.1094 23.0938 9.91406 23.4688 9.69531 23.8438C8.69531 25.5312 7.35156 26.875 5.66406 27.875C5.28906 28.0938 4.91406 28.2891 4.53906 28.4609C4.91406 28.6328 5.28906 28.8203 5.66406 29.0234C7.35156 30.0391 8.69531 31.3906 9.69531 33.0781C9.91406 33.4375 10.1094 33.8125 10.2812 34.2031C10.4531 33.8125 10.6406 33.4375 10.8438 33.0781C11.8594 31.3906 13.2109 30.0391 14.8984 29.0234Z" fill="black"/>
</svg>
